<?xml version="1.0" encoding="utf-8"?>
<!-- Generator: Adobe Illustrator 17.0.0, SVG Export Plug-In . SVG Version: 6.00 Build 0)  -->
<!DOCTYPE svg PUBLIC "-//W3C//DTD SVG 1.1//EN" "http://www.w3.org/Graphics/SVG/1.1/DTD/svg11.dtd">
<svg version="1.1" id="Layer_1" xmlns="http://www.w3.org/2000/svg" xmlns:xlink="http://www.w3.org/1999/xlink" x="0px" y="0px"
	 width="90px" height="90px" viewBox="0 0 90 90" enable-background="new 0 0 90 90" xml:space="preserve">
<g>
	<g>
		<path fill-rule="evenodd" clip-rule="evenodd" d="M44.952,26.889c-9.985,0-18.081,8.095-18.081,18.082
			c0,9.986,8.095,18.081,18.081,18.081c9.987,0,18.082-8.094,18.082-18.081C63.035,34.984,54.939,26.889,44.952,26.889z
			 M73.61,14.008H16.391c-5.187,0-9.392,4.205-9.392,9.392v43.2c0,5.187,4.205,9.391,9.392,9.391H73.61
			c5.187,0,9.391-4.205,9.391-9.391V23.4C83.001,18.213,78.796,14.008,73.61,14.008z M45.024,67.534
			c-12.446,0-22.534-10.088-22.534-22.533c0-12.447,10.089-22.535,22.534-22.535c12.445,0,22.535,10.089,22.535,22.535
			C67.559,57.446,57.47,67.534,45.024,67.534z"/>
	</g>
</g>
</svg>
