<?xml version="1.0" encoding="utf-8"?>
<!-- Generator: Adobe Illustrator 17.0.0, SVG Export Plug-In . SVG Version: 6.00 Build 0)  -->
<!DOCTYPE svg PUBLIC "-//W3C//DTD SVG 1.1//EN" "http://www.w3.org/Graphics/SVG/1.1/DTD/svg11.dtd">
<svg version="1.1" id="Layer_1" xmlns="http://www.w3.org/2000/svg" xmlns:xlink="http://www.w3.org/1999/xlink" x="0px" y="0px"
	 width="68px" height="68px" viewBox="0 0 68 68" enable-background="new 0 0 68 68" xml:space="preserve">
<g>
	<g>
		<path fill-rule="evenodd" clip-rule="evenodd" d="M14,52c0,1.104,0.895,2,2,2H26V42H14V52z M52,14H42V26h12V15.999
			C54,14.895,53.105,14,52,14z M42,54h10c1.105,0,2-0.895,2-2V42H42V54z M14,15.999V26H26V14H15.999C14.895,14,14,14.895,14,15.999z
			 M42,40h12V27.999H42V40z M28,26H40V14H28V26z M28,40H40V27.999H28V40z M28,54H40V42H28V54z M14,40H26V27.999H14V40z"/>
	</g>
</g>
</svg>
